<svg width="86" height="78" viewBox="0 0 86 78" fill="none" xmlns="http://www.w3.org/2000/svg">
<path fill-rule="evenodd" clip-rule="evenodd" d="M56.1943 73.5881C58.583 69.5585 62.976 66.8571 68 66.8571C73.024 66.8571 77.417 69.5585 79.8057 73.5881C83.6008 70.288 86 65.4242 86 60C86 50.0589 77.9411 42 68 42C58.0589 42 50 50.0589 50 60C50 65.4242 52.3992 70.288 56.1943 73.5881ZM74.8571 56.5714C74.8571 60.3585 71.7871 63.4285 68 63.4285C64.2129 63.4285 61.1428 60.3585 61.1428 56.5714C61.1428 52.7843 64.2129 49.7143 68 49.7143C71.7871 49.7143 74.8571 52.7843 74.8571 56.5714Z" fill="#E879F9"/>
<circle cx="68" cy="60" r="17" stroke="#E879F9" stroke-width="2"/>
<path d="M18 4.5C10.5469 4.5 4.5 10.5469 4.5 18C4.5 25.4531 10.5469 31.5 18 31.5C19.2445 31.5 20.25 32.5055 20.25 33.75C20.25 34.9945 19.2445 36 18 36C8.05781 36 0 27.9422 0 18C0 8.05781 8.05781 0 18 0C27.9422 0 36 8.05781 36 18V20.25C36 23.9766 32.9766 27 29.25 27C27.1898 27 25.3406 26.0719 24.1031 24.6164C22.5 26.093 20.3555 27 18 27C13.0289 27 9 22.9711 9 18C9 13.0289 13.0289 9 18 9C19.9617 9 21.7758 9.62578 23.2523 10.6945C23.6531 10.343 24.1734 10.125 24.75 10.125C25.9945 10.125 27 11.1305 27 12.375V20.25C27 21.4945 28.0055 22.5 29.25 22.5C30.4945 22.5 31.5 21.4945 31.5 20.25V18C31.5 10.5469 25.4531 4.5 18 4.5ZM22.5 18C22.5 16.8065 22.0259 15.6619 21.182 14.818C20.3381 13.9741 19.1935 13.5 18 13.5C16.8065 13.5 15.6619 13.9741 14.818 14.818C13.9741 15.6619 13.5 16.8065 13.5 18C13.5 19.1935 13.9741 20.3381 14.818 21.182C15.6619 22.0259 16.8065 22.5 18 22.5C19.1935 22.5 20.3381 22.0259 21.182 21.182C22.0259 20.3381 22.5 19.1935 22.5 18Z" fill="#E879F9"/>
<path d="M40 7.23538C57 6.23541 68.5 7.23544 67.5 34.7354" stroke="#625295" stroke-width="4" stroke-linecap="round"/>
<path d="M67.5 35.7355L61.5 27.7355" stroke="#625295" stroke-width="4" stroke-linecap="round"/>
<path d="M67.5 35.7355L73.5 27.7355" stroke="#625295" stroke-width="4" stroke-linecap="round"/>
</svg>
