<svg width="118" height="116" viewBox="0 0 118 116" fill="none" xmlns="http://www.w3.org/2000/svg">
<path fill-rule="evenodd" clip-rule="evenodd" d="M88.1943 31.5881C90.583 27.5585 94.976 24.8571 100 24.8571C105.024 24.8571 109.417 27.5585 111.806 31.5881C115.601 28.288 118 23.4242 118 18C118 8.05887 109.941 0 100 0C90.0589 0 82 8.05887 82 18C82 23.4242 84.3992 28.288 88.1943 31.5881ZM106.857 14.5714C106.857 18.3585 103.787 21.4285 100 21.4285C96.2129 21.4285 93.1428 18.3585 93.1428 14.5714C93.1428 10.7843 96.2129 7.71426 100 7.71426C103.787 7.71426 106.857 10.7843 106.857 14.5714Z" fill="white"/>
<circle cx="100" cy="18" r="17" stroke="white" stroke-width="2"/>
<path fill-rule="evenodd" clip-rule="evenodd" d="M88.1943 71.5881C90.583 67.5585 94.976 64.8571 100 64.8571C105.024 64.8571 109.417 67.5585 111.806 71.5881C115.601 68.288 118 63.4242 118 58C118 48.0589 109.941 40 100 40C90.0589 40 82 48.0589 82 58C82 63.4242 84.3992 68.288 88.1943 71.5881ZM106.857 54.5714C106.857 58.3585 103.787 61.4285 100 61.4285C96.2129 61.4285 93.1428 58.3585 93.1428 54.5714C93.1428 50.7843 96.2129 47.7143 100 47.7143C103.787 47.7143 106.857 50.7843 106.857 54.5714Z" fill="#E879F9"/>
<circle cx="100" cy="58" r="17" stroke="#E879F9" stroke-width="2"/>
<path fill-rule="evenodd" clip-rule="evenodd" d="M88.1943 111.588C90.583 107.559 94.976 104.857 100 104.857C105.024 104.857 109.417 107.559 111.806 111.588C115.601 108.288 118 103.424 118 98C118 88.0589 109.941 80 100 80C90.0589 80 82 88.0589 82 98C82 103.424 84.3992 108.288 88.1943 111.588ZM106.857 94.5714C106.857 98.3585 103.787 101.429 100 101.429C96.2129 101.429 93.1428 98.3585 93.1428 94.5714C93.1428 90.7843 96.2129 87.7143 100 87.7143C103.787 87.7143 106.857 90.7843 106.857 94.5714Z" fill="#E879F9"/>
<circle cx="100" cy="98" r="17" stroke="#E879F9" stroke-width="2"/>
<path d="M23.5 40.7709C25.3178 40.7709 27.0612 41.493 28.3466 42.7784C29.632 44.0638 30.3542 45.8072 30.3542 47.625C30.3542 49.4429 29.632 51.1863 28.3466 52.4717C27.0612 53.7571 25.3178 54.4792 23.5 54.4792C21.6822 54.4792 19.9388 53.7571 18.6534 52.4717C17.368 51.1863 16.6458 49.4429 16.6458 47.625C16.6458 45.8072 17.368 44.0638 18.6534 42.7784C19.9388 41.493 21.6822 40.7709 23.5 40.7709ZM9.79167 45.6667C10.8883 45.6667 11.9067 45.9605 12.7879 46.4892C12.4942 49.2896 13.3167 52.0705 15.0008 54.2442C14.0217 56.1242 12.0633 57.4167 9.79167 57.4167C8.23352 57.4167 6.73919 56.7977 5.63741 55.696C4.53564 54.5942 3.91667 53.0999 3.91667 51.5417C3.91667 49.9836 4.53564 48.4892 5.63741 47.3875C6.73919 46.2857 8.23352 45.6667 9.79167 45.6667ZM37.2083 45.6667C38.7665 45.6667 40.2608 46.2857 41.3626 47.3875C42.4644 48.4892 43.0833 49.9836 43.0833 51.5417C43.0833 53.0999 42.4644 54.5942 41.3626 55.696C40.2608 56.7977 38.7665 57.4167 37.2083 57.4167C34.9367 57.4167 32.9783 56.1242 31.9992 54.2442C33.7066 52.0399 34.4991 49.2626 34.2121 46.4892C35.0933 45.9605 36.1117 45.6667 37.2083 45.6667ZM10.7708 65.7396C10.7708 61.6859 16.4696 58.3959 23.5 58.3959C30.5304 58.3959 36.2292 61.6859 36.2292 65.7396V69.1667H10.7708V65.7396ZM0 69.1667V66.2292C0 63.5071 3.70125 61.2159 8.71458 60.55C7.55917 61.8817 6.85417 63.7225 6.85417 65.7396V69.1667H0ZM47 69.1667H40.1458V65.7396C40.1458 63.7225 39.4408 61.8817 38.2854 60.55C43.2987 61.2159 47 63.5071 47 66.2292V69.1667Z" fill="#625295"/>
<path d="M49 48L76.5 25M53 60.5H76.5M49 75L76.5 98" stroke="#625295" stroke-width="4" stroke-linecap="round"/>
<path d="M74 32.5L77 24.5L69 22" stroke="#625295" stroke-width="4" stroke-linecap="round" stroke-linejoin="round"/>
<path d="M74 90L77 98L69 100.5" stroke="#625295" stroke-width="4" stroke-linecap="round" stroke-linejoin="round"/>
<path d="M70.7567 55.0523L76.7763 61.1156L70.5077 66.6793" stroke="#625295" stroke-width="4" stroke-linecap="round" stroke-linejoin="round"/>
</svg>
