<svg width="122" height="116" viewBox="0 0 122 116" fill="none" xmlns="http://www.w3.org/2000/svg">
<path fill-rule="evenodd" clip-rule="evenodd" d="M6.19431 31.5881C8.583 27.5585 12.976 24.8571 18 24.8571C23.024 24.8571 27.417 27.5585 29.8057 31.5881C33.6008 28.288 36 23.4242 36 18C36 8.05887 27.9411 0 18 0C8.05887 0 0 8.05887 0 18C0 23.4242 2.39921 28.288 6.19431 31.5881ZM24.8571 14.5714C24.8571 18.3585 21.7871 21.4285 18 21.4285C14.2129 21.4285 11.1428 18.3585 11.1428 14.5714C11.1428 10.7843 14.2129 7.71426 18 7.71426C21.7871 7.71426 24.8571 10.7843 24.8571 14.5714Z" fill="white"/>
<circle cx="18" cy="18" r="17" stroke="white" stroke-width="2"/>
<path fill-rule="evenodd" clip-rule="evenodd" d="M6.19431 71.5881C8.583 67.5585 12.976 64.8571 18 64.8571C23.024 64.8571 27.417 67.5585 29.8057 71.5881C33.6008 68.288 36 63.4242 36 58C36 48.0589 27.9411 40 18 40C8.05887 40 0 48.0589 0 58C0 63.4242 2.39921 68.288 6.19431 71.5881ZM24.8571 54.5714C24.8571 58.3585 21.7871 61.4285 18 61.4285C14.2129 61.4285 11.1428 58.3585 11.1428 54.5714C11.1428 50.7843 14.2129 47.7143 18 47.7143C21.7871 47.7143 24.8571 50.7843 24.8571 54.5714Z" fill="#E879F9"/>
<circle cx="18" cy="58" r="17" stroke="#E879F9" stroke-width="2"/>
<path fill-rule="evenodd" clip-rule="evenodd" d="M6.19431 111.588C8.583 107.559 12.976 104.857 18 104.857C23.024 104.857 27.417 107.559 29.8057 111.588C33.6008 108.288 36 103.424 36 98C36 88.0589 27.9411 80 18 80C8.05887 80 0 88.0589 0 98C0 103.424 2.39921 108.288 6.19431 111.588ZM24.8571 94.5714C24.8571 98.3585 21.7871 101.429 18 101.429C14.2129 101.429 11.1428 98.3585 11.1428 94.5714C11.1428 90.7843 14.2129 87.7143 18 87.7143C21.7871 87.7143 24.8571 90.7843 24.8571 94.5714Z" fill="#E879F9"/>
<circle cx="18" cy="98" r="17" stroke="#E879F9" stroke-width="2"/>
<path d="M98.5 40.7709C100.318 40.7709 102.061 41.493 103.347 42.7784C104.632 44.0638 105.354 45.8072 105.354 47.625C105.354 49.4429 104.632 51.1863 103.347 52.4717C102.061 53.7571 100.318 54.4792 98.5 54.4792C96.6822 54.4792 94.9388 53.7571 93.6534 52.4717C92.368 51.1863 91.6458 49.4429 91.6458 47.625C91.6458 45.8072 92.368 44.0638 93.6534 42.7784C94.9388 41.493 96.6822 40.7709 98.5 40.7709ZM84.7917 45.6667C85.8883 45.6667 86.9067 45.9605 87.7879 46.4892C87.4942 49.2896 88.3167 52.0705 90.0008 54.2442C89.0217 56.1242 87.0633 57.4167 84.7917 57.4167C83.2335 57.4167 81.7392 56.7977 80.6374 55.696C79.5356 54.5942 78.9167 53.0999 78.9167 51.5417C78.9167 49.9836 79.5356 48.4892 80.6374 47.3875C81.7392 46.2857 83.2335 45.6667 84.7917 45.6667ZM112.208 45.6667C113.766 45.6667 115.261 46.2857 116.363 47.3875C117.464 48.4892 118.083 49.9836 118.083 51.5417C118.083 53.0999 117.464 54.5942 116.363 55.696C115.261 56.7977 113.766 57.4167 112.208 57.4167C109.937 57.4167 107.978 56.1242 106.999 54.2442C108.707 52.0399 109.499 49.2626 109.212 46.4892C110.093 45.9605 111.112 45.6667 112.208 45.6667ZM85.7708 65.7396C85.7708 61.6859 91.4696 58.3959 98.5 58.3959C105.53 58.3959 111.229 61.6859 111.229 65.7396V69.1667H85.7708V65.7396ZM75 69.1667V66.2292C75 63.5071 78.7012 61.2159 83.7146 60.55C82.5592 61.8817 81.8542 63.7225 81.8542 65.7396V69.1667H75ZM122 69.1667H115.146V65.7396C115.146 63.7225 114.441 61.8817 113.285 60.55C118.299 61.2159 122 63.5071 122 66.2292V69.1667Z" fill="#625295"/>
<path d="M41 25L68.5 48M45 60.5H68.5M68.5 75L41 98" stroke="#625295" stroke-width="4" stroke-linecap="round"/>
<path d="M66 82.5L69 74.5L61 72" stroke="#625295" stroke-width="4" stroke-linecap="round" stroke-linejoin="round"/>
<path d="M66 40L69 48L61 50.5" stroke="#625295" stroke-width="4" stroke-linecap="round" stroke-linejoin="round"/>
<path d="M62.7567 55.0523L68.7763 61.1156L62.5077 66.6793" stroke="#625295" stroke-width="4" stroke-linecap="round" stroke-linejoin="round"/>
</svg>
