<svg width="160" height="98" viewBox="0 0 160 98" fill="none" xmlns="http://www.w3.org/2000/svg">
<path fill-rule="evenodd" clip-rule="evenodd" d="M6.19431 65.5881C8.583 61.5585 12.976 58.8571 18 58.8571C23.024 58.8571 27.417 61.5585 29.8057 65.5881C33.6008 62.288 36 57.4242 36 52C36 42.0589 27.9411 34 18 34C8.05887 34 0 42.0589 0 52C0 57.4242 2.39921 62.288 6.19431 65.5881ZM24.8571 48.5714C24.8571 52.3585 21.7871 55.4285 18 55.4285C14.2129 55.4285 11.1428 52.3585 11.1428 48.5714C11.1428 44.7843 14.2129 41.7143 18 41.7143C21.7871 41.7143 24.8571 44.7843 24.8571 48.5714Z" fill="white"/>
<circle cx="18" cy="52" r="17" stroke="white" stroke-width="2"/>
<path fill-rule="evenodd" clip-rule="evenodd" d="M128.194 31.5881C130.583 27.5585 134.976 24.8571 140 24.8571C145.024 24.8571 149.417 27.5585 151.806 31.5881C155.601 28.288 158 23.4242 158 18C158 8.05887 149.941 0 140 0C130.059 0 122 8.05887 122 18C122 23.4242 124.399 28.288 128.194 31.5881ZM146.857 14.5714C146.857 18.3585 143.787 21.4285 140 21.4285C136.213 21.4285 133.143 18.3585 133.143 14.5714C133.143 10.7843 136.213 7.71426 140 7.71426C143.787 7.71426 146.857 10.7843 146.857 14.5714Z" fill="#E879F9"/>
<circle cx="140" cy="18" r="17" stroke="#E879F9" stroke-width="2"/>
<path fill-rule="evenodd" clip-rule="evenodd" d="M130.194 93.5881C132.583 89.5585 136.976 86.8571 142 86.8571C147.024 86.8571 151.417 89.5585 153.806 93.5881C157.601 90.288 160 85.4242 160 80C160 70.0589 151.941 62 142 62C132.059 62 124 70.0589 124 80C124 85.4242 126.399 90.288 130.194 93.5881ZM148.857 76.5714C148.857 80.3585 145.787 83.4285 142 83.4285C138.213 83.4285 135.143 80.3585 135.143 76.5714C135.143 72.7843 138.213 69.7143 142 69.7143C145.787 69.7143 148.857 72.7843 148.857 76.5714Z" fill="#E879F9"/>
<circle cx="142" cy="80" r="17" stroke="#E879F9" stroke-width="2"/>
<path d="M94 39L117.5 24" stroke="#625295" stroke-width="4" stroke-linecap="round"/>
<path d="M116 30.5L119 22.5L111 20" stroke="#625295" stroke-width="4" stroke-linecap="round" stroke-linejoin="round"/>
<path d="M94 68L118.5 83" stroke="#625295" stroke-width="4" stroke-linecap="round"/>
<path d="M117 76L120 84L112 86.5" stroke="#625295" stroke-width="4" stroke-linecap="round" stroke-linejoin="round"/>
<path d="M41 52.6792H57.5" stroke="#625295" stroke-width="4" stroke-linecap="round"/>
<path d="M52.7567 47.2315L58.7763 53.2948L52.5077 58.8585" stroke="#625295" stroke-width="4" stroke-linecap="round" stroke-linejoin="round"/>
<path d="M81 40C82.5471 40 84.0308 40.6103 85.1248 41.6968C86.2188 42.7832 86.8333 44.2567 86.8333 45.7931C86.8333 47.3295 86.2188 48.803 85.1248 49.8894C84.0308 50.9759 82.5471 51.5862 81 51.5862C79.4529 51.5862 77.9692 50.9759 76.8752 49.8894C75.7812 48.803 75.1667 47.3295 75.1667 45.7931C75.1667 44.2567 75.7812 42.7832 76.8752 41.6968C77.9692 40.6103 79.4529 40 81 40ZM69.3333 44.1379C70.2667 44.1379 71.1333 44.3862 71.8833 44.8331C71.6333 47.2 72.3333 49.5503 73.7667 51.3876C72.9333 52.9766 71.2667 54.069 69.3333 54.069C68.0073 54.069 66.7355 53.5458 65.7978 52.6146C64.8601 51.6834 64.3333 50.4204 64.3333 49.1034C64.3333 47.7865 64.8601 46.5235 65.7978 45.5923C66.7355 44.6611 68.0073 44.1379 69.3333 44.1379ZM92.6667 44.1379C93.9927 44.1379 95.2645 44.6611 96.2022 45.5923C97.1399 46.5235 97.6667 47.7865 97.6667 49.1034C97.6667 50.4204 97.1399 51.6834 96.2022 52.6146C95.2645 53.5458 93.9927 54.069 92.6667 54.069C90.7333 54.069 89.0667 52.9766 88.2333 51.3876C89.6865 49.5246 90.3609 47.1772 90.1167 44.8331C90.8667 44.3862 91.7333 44.1379 92.6667 44.1379ZM70.1667 61.1034C70.1667 57.6772 75.0167 54.8966 81 54.8966C86.9833 54.8966 91.8333 57.6772 91.8333 61.1034V64H70.1667V61.1034ZM61 64V61.5172C61 59.2166 64.15 57.28 68.4167 56.7172C67.4333 57.8428 66.8333 59.3986 66.8333 61.1034V64H61ZM101 64H95.1667V61.1034C95.1667 59.3986 94.5667 57.8428 93.5833 56.7172C97.85 57.28 101 59.2166 101 61.5172V64Z" fill="#625295"/>
</svg>
